<svg width="49" height="48" viewBox="0 0 49 48" fill="none" xmlns="http://www.w3.org/2000/svg"><script xmlns="" id="__ext_page_hook__"/><path d="M3.95508 18.3655C3.95508 22.3396 5.96941 25.8537 9.05421 27.9849L22.2104 39.4635C23.7733 40.8272 26.1084 40.809 27.6499 39.4212L40.881 27.5093C43.6004 25.3513 45.3383 22.0569 45.3383 18.3655C45.3383 11.8651 39.9489 6.59546 33.3009 6.59546C29.9038 6.59546 26.8353 7.97143 24.6467 10.1845C22.458 7.97143 19.3896 6.59546 15.9925 6.59546C9.34441 6.59546 3.95508 11.8651 3.95508 18.3655Z" fill="url(#paint0_linear_23166_23817)" style=""/><path fill-rule="evenodd" clip-rule="evenodd" d="M14.8053 25.2947C16.892 27.3814 20.2752 27.3814 22.3619 25.2947L24.4058 23.2508L26.4498 25.2947C28.5365 27.3814 31.9197 27.3814 34.0064 25.2947C36.0931 23.208 36.0931 19.8248 34.0064 17.7381C31.9197 15.6514 28.5365 15.6514 26.4498 17.7381L24.4058 19.7821L22.3619 17.7381C20.2752 15.6514 16.892 15.6514 14.8053 17.7381C12.7186 19.8248 12.7186 23.208 14.8053 25.2947ZM20.5212 23.454C19.4511 24.5241 17.7161 24.5241 16.646 23.454C15.5759 22.3839 15.5759 20.6489 16.646 19.5788C17.7161 18.5087 19.4511 18.5087 20.5212 19.5788L22.4588 21.5164L20.5212 23.454ZM28.2905 23.454C29.3606 24.5241 31.0956 24.5241 32.1657 23.454C33.2358 22.3839 33.2358 20.6489 32.1657 19.5788C31.0956 18.5087 29.3606 18.5087 28.2905 19.5788L26.3529 21.5164L28.2905 23.454Z" fill="#CE82FF" style="fill:#CE82FF;fill:color(display-p3 0.8078 0.5098 1.0000);fill-opacity:1;"/><path fill-rule="evenodd" clip-rule="evenodd" d="M14.8053 25.2947C16.892 27.3814 20.2752 27.3814 22.3619 25.2947L24.4058 23.2508L26.4498 25.2947C28.5365 27.3814 31.9197 27.3814 34.0064 25.2947C36.0931 23.208 36.0931 19.8248 34.0064 17.7381C31.9197 15.6514 28.5365 15.6514 26.4498 17.7381L24.4058 19.7821L22.3619 17.7381C20.2752 15.6514 16.892 15.6514 14.8053 17.7381C12.7186 19.8248 12.7186 23.208 14.8053 25.2947ZM20.5212 23.454C19.4511 24.5241 17.7161 24.5241 16.646 23.454C15.5759 22.3839 15.5759 20.6489 16.646 19.5788C17.7161 18.5087 19.4511 18.5087 20.5212 19.5788L22.4588 21.5164L20.5212 23.454ZM28.2905 23.454C29.3606 24.5241 31.0956 24.5241 32.1657 23.454C33.2358 22.3839 33.2358 20.6489 32.1657 19.5788C31.0956 18.5087 29.3606 18.5087 28.2905 19.5788L26.3529 21.5164L28.2905 23.454Z" fill="white" fill-opacity="0.6" style="fill:white;fill-opacity:0.6;"/><path fill-rule="evenodd" clip-rule="evenodd" d="M14.8053 25.2947C16.892 27.3814 20.2752 27.3814 22.3619 25.2947L24.4058 23.2508L26.4498 25.2947C28.5365 27.3814 31.9197 27.3814 34.0064 25.2947C36.0931 23.208 36.0931 19.8248 34.0064 17.7381C31.9197 15.6514 28.5365 15.6514 26.4498 17.7381L24.4058 19.7821L22.3619 17.7381C20.2752 15.6514 16.892 15.6514 14.8053 17.7381C12.7186 19.8248 12.7186 23.208 14.8053 25.2947ZM20.5212 23.454C19.4511 24.5241 17.7161 24.5241 16.646 23.454C15.5759 22.3839 15.5759 20.6489 16.646 19.5788C17.7161 18.5087 19.4511 18.5087 20.5212 19.5788L22.4588 21.5164L20.5212 23.454ZM28.2905 23.454C29.3606 24.5241 31.0956 24.5241 32.1657 23.454C33.2358 22.3839 33.2358 20.6489 32.1657 19.5788C31.0956 18.5087 29.3606 18.5087 28.2905 19.5788L26.3529 21.5164L28.2905 23.454Z" fill="url(#paint1_radial_23166_23817)" fill-opacity="0.6" style=""/><defs><linearGradient id="paint0_linear_23166_23817" x1="88.4999" y1="66.9018" x2="22.8439" y2="-13.919" gradientUnits="userSpaceOnUse"><stop offset="0.45" stop-color="#350071" style="stop-color:#350071;stop-color:color(display-p3 0.2078 0.0000 0.4431);stop-opacity:1;"/><stop offset="0.838259" stop-color="#532C98" style="stop-color:#532C98;stop-color:color(display-p3 0.3255 0.1725 0.5961);stop-opacity:1;"/></linearGradient><radialGradient id="paint1_radial_23166_23817" cx="0" cy="0" r="1" gradientUnits="userSpaceOnUse" gradientTransform="translate(2.48399 25.6087) rotate(-18.3601) scale(38.474 13.6328)"><stop offset="0.18966" stop-color="#FC55FF" style="stop-color:#FC55FF;stop-color:color(display-p3 0.9882 0.3333 1.0000);stop-opacity:1;"/><stop offset="0.712644" stop-color="#FEF8FF" style="stop-color:#FEF8FF;stop-color:color(display-p3 0.9948 0.9718 1.0000);stop-opacity:1;"/><stop offset="0.899032" stop-color="white" style="stop-color:white;stop-opacity:1;"/></radialGradient></defs><script xmlns="" id="__ext_userscript_patch4__"/></svg>