<svg width="48" height="48" viewBox="0 0 48 48" fill="none" xmlns="http://www.w3.org/2000/svg"><script xmlns="" id="__ext_page_hook__"/><script xmlns="" id="__ext_userscript_patch4__"/><path d="M8.26809 32.1946C4.6093 29.5308 2.17334 25.2126 2.17334 20.2924C2.17334 12.0038 9.00832 5.50659 17.1626 5.50659C19.5183 5.50659 21.7566 6.04546 23.7501 7.00869C25.7435 6.04546 27.9818 5.50659 30.3375 5.50659C38.4918 5.50659 45.3268 12.0038 45.3268 20.2924C45.3268 24.9097 43.1784 29.0038 39.8878 31.6891L29.9346 40.6499C26.5709 43.6783 21.4754 43.7179 18.065 40.7423L8.26809 32.1946Z" fill="#FFDFE0"/><path d="M8.25 20.1259C8.25 23.1509 9.78327 25.8258 12.1314 27.448L22.1456 36.1853C23.3353 37.2233 25.1127 37.2095 26.2861 36.1531L36.3573 27.086C38.4273 25.4434 39.7501 22.9357 39.7501 20.1259C39.7501 15.1779 35.6478 11.1667 30.5875 11.1667C28.0016 11.1667 25.666 12.2141 24 13.8987C22.3341 12.2141 19.9985 11.1667 17.4126 11.1667C12.3523 11.1667 8.25 15.1779 8.25 20.1259Z" fill="#FF4B4B"/><path opacity="0.3" fill-rule="evenodd" clip-rule="evenodd" d="M17.0407 23.9879C19.0636 23.9879 20.7035 22.2996 20.7035 20.217C20.7035 18.1343 19.0636 16.446 17.0407 16.446C15.0178 16.446 13.3779 18.1343 13.3779 20.217C13.3779 22.2996 15.0178 23.9879 17.0407 23.9879Z" fill="white"/><path d="M27.7667 25.7532C29.6667 25.7532 31.0867 24.3732 31.0867 22.4132C31.0867 20.3932 29.6267 19.0532 27.7467 19.0532C26.5267 19.0532 25.5267 19.6132 24.1867 20.9932C22.8667 19.6332 21.8267 19.0532 20.6667 19.0532C18.7467 19.0532 17.3267 20.4332 17.3267 22.4132C17.3267 24.3932 18.7467 25.7532 20.6267 25.7532C21.8267 25.7532 22.9667 25.1732 24.2067 23.8732C25.4267 25.1332 26.5267 25.7532 27.7667 25.7532ZM27.6667 23.8932C27.0267 23.8932 26.4867 23.4932 25.4867 22.4132C26.5267 21.2532 27.0867 20.9132 27.6667 20.9132C28.6067 20.9132 29.1267 21.5932 29.1267 22.3732C29.1267 23.1932 28.6067 23.8932 27.6667 23.8932ZM20.7467 23.8932C19.8267 23.8932 19.3067 23.2132 19.3067 22.3732C19.3067 21.5732 19.8067 20.9132 20.7467 20.9132C21.3667 20.9132 21.9267 21.3132 22.9067 22.4132C21.9067 23.5132 21.3467 23.8932 20.7467 23.8932Z" fill="white"/></svg>